<?xml version="1.0" encoding="utf-8"?>
<!-- Generator: Adobe Illustrator 24.1.2, SVG Export Plug-In . SVG Version: 6.00 Build 0)  -->
<svg version="1.1" id="Camada_1" xmlns="http://www.w3.org/2000/svg" xmlns:xlink="http://www.w3.org/1999/xlink" x="0px" y="0px"
	 viewBox="0 0 512 512" style="enable-background:new 0 0 512 512;" xml:space="preserve">
<style type="text/css">
	.st0{fill:url(#Shape_2_);}
	.st1{fill:url(#Shape_3_);}
</style>
<g id="Page-1">
	<g id="_x30_01---Degree">
		<linearGradient id="Shape_2_" gradientUnits="userSpaceOnUse" x1="6.998800e-02" y1="123.7376" x2="511.9641" y2="123.7376">
			<stop  offset="0" style="stop-color:#F12711"/>
			<stop  offset="1" style="stop-color:#F5AF19"/>
		</linearGradient>
		<path id="Shape" class="st0" d="M500.6,86.3L261.8,1c-3.8-1.3-7.9-1.3-11.7,0L11.3,86.3c-6.8,2.4-11.3,8.9-11.3,16.1
			c0,7.2,4.5,13.6,11.3,16.1L128,160.1v53.2c0,33.2,114.9,34.1,128,34.1c13.1,0,128-1,128-34.1v-53.2l25.6-9.1v19.6
			c0,9.4,7.6,17.1,17.1,17.1h17.1c9.4,0,17.1-7.6,17.1-17.1v-25.6c0-4-1-7.8-2.8-11.4l42.7-15.3c6.8-2.4,11.3-8.9,11.3-16.1
			S507.5,88.8,500.6,86.3L500.6,86.3z M366.9,194.6c-32.5-14.8-101-15.4-110.9-15.4c-9.9,0-78.4,0.6-110.9,15.4v-74.3
			c5.1-6.6,45.4-17.8,110.9-17.8s105.8,11.2,110.9,17.8V194.6z M256,230.4c-63.1,0-102.8-10.4-110.2-17.1
			c7.4-6.6,47.1-17.1,110.2-17.1s102.8,10.4,110.2,17.1C358.8,220,319.1,230.4,256,230.4z M413.6,131.5L384,142v-22.5
			c0-33.2-114.9-34.1-128-34.1c-13.1,0-128,1-128,34.1V142L17.1,102.4l239.1-85.3L426.7,78v43C421.3,123,416.7,126.6,413.6,131.5z
			 M443.7,170.7h-17.1v-25.6c0-4.7,3.8-8.5,8.5-8.5s8.5,3.8,8.5,8.5V170.7z M443.7,120.7V84.1l51.2,18.3L443.7,120.7z"/>
		<linearGradient id="Shape_3_" gradientUnits="userSpaceOnUse" x1="8.138021e-06" y1="388.2668" x2="512.0001" y2="388.2668">
			<stop  offset="0" style="stop-color:#F12711"/>
			<stop  offset="1" style="stop-color:#F5AF19"/>
		</linearGradient>
		<path id="Shape_1_" class="st1" d="M486.4,264.5c-0.5,0-1,0-1.5,0.1c-75.7,11.8-152.3,17.4-228.9,16.9
			c-76.6,0.5-153.2-5.2-228.9-16.9c-0.5-0.1-1-0.1-1.5-0.1c-6,0-25.6,6.8-25.6,93.9s19.6,93.9,25.6,93.9c0.5,0,1-0.1,1.5-0.2
			c58.2-9.2,116.9-14.6,175.8-16l-16.7,40c-2.6,6.4-1,13.7,3.9,18.5c4.9,4.8,12.3,6.1,18.6,3.4l6.5-2.8l2.8,6.5
			c2.7,6.3,8.9,10.4,15.7,10.4h0.2c6.9-0.1,13.1-4.3,15.6-10.6l14.8-35.5l14.8,35.3c2.6,6.5,8.8,10.7,15.7,10.8h0.3
			c6.8,0,12.9-4,15.6-10.2l2.9-6.5l6.4,2.8c6.3,2.8,13.8,1.5,18.7-3.4c5-4.8,6.5-12.2,3.9-18.6l-16.3-39.2
			c53.1,1.9,106,7,158.5,15.4c0.5,0.1,1,0.1,1.5,0.1c6,0,25.6-6.8,25.6-93.9S492.4,264.5,486.4,264.5L486.4,264.5z M283.3,298.4
			c3.5,13,5.6,26.4,6.2,39.9c-19.3-9-42-6.9-59.4,5.5c-0.4-15.3-2.4-30.6-5.9-45.5c10.3,0.2,20.9,0.3,31.8,0.3
			C265.3,298.7,274.4,298.6,283.3,298.4z M264.5,435.2c-23.6,0-42.7-19.1-42.7-42.7c0-23.6,19.1-42.7,42.7-42.7
			c23.6,0,42.7,19.1,42.7,42.7C307.2,416.1,288.1,435.2,264.5,435.2z M25.6,285.9c6.5,23.6,9.4,48.1,8.5,72.5
			c0.9,24.5-2,48.9-8.5,72.5c-6.5-23.6-9.4-48.1-8.5-72.5C16.2,333.9,19.1,309.5,25.6,285.9z M42.8,432.4c4.7-13.5,8.4-36.2,8.4-74
			s-3.7-60.5-8.4-74c54.2,7.5,108.8,12,163.5,13.5c5.1,19.7,7.5,40.1,7,60.5c0,1.2,0,2.4-0.1,3.6c-10.2,17-11.3,38-2.7,55.9
			l-0.4,0.9C154.2,420.2,98.3,424.7,42.8,432.4L42.8,432.4z M233.9,494.9l-6.2-14.3c-1.9-4.3-6.9-6.3-11.2-4.4l-14.4,6.3l20-48
			c8.2,8.3,18.7,14.1,30.1,16.5L233.9,494.9z M312.6,476.2c-4.3-1.9-9.3,0.1-11.2,4.4l-6.3,14.2L276.8,451
			c11.5-2.4,21.9-8.1,30.2-16.5l20,47.8L312.6,476.2z M484.7,434.8c-54.8-8.4-110.1-13.6-165.5-15.4l-0.6-1.5
			c10.7-22.6,6.1-49.5-11.5-67.3c-0.1-17.7-2.1-35.3-6.1-52.6c61.5-1.4,122.9-6.7,183.7-16.1c4,6.7,10.2,33.3,10.2,76.4
			S488.6,428,484.7,434.8L484.7,434.8z"/>
	</g>
</g>
</svg>
