<?xml version="1.0" encoding="utf-8"?>
<!-- Generator: Adobe Illustrator 24.1.2, SVG Export Plug-In . SVG Version: 6.00 Build 0)  -->
<svg version="1.1" id="Capa_1" xmlns="http://www.w3.org/2000/svg" xmlns:xlink="http://www.w3.org/1999/xlink" x="0px" y="0px"
	 viewBox="0 0 512 512" style="enable-background:new 0 0 512 512;" xml:space="preserve">
<style type="text/css">
	.st0{fill:#9900FF;}
</style>
<g>
	<path class="st0" d="M440.1,121.6c-19.9-1.5-42.5-6.1-67.1-13.5c-29.5-8.9-58.1-7.5-85.1,4.1c-3.8,1.6-5.6,6-3.9,9.9
		c1.6,3.8,6,5.6,9.9,3.9c23.7-10.2,48.8-11.3,74.9-3.5c25.6,7.7,49.2,12.4,70.2,14.1c0.2,0,0.4,0,0.6,0c3.9,0,7.2-3,7.5-6.9
		C447.3,125.5,444.3,121.9,440.1,121.6L440.1,121.6z"/>
	<path class="st0" d="M440.1,153.5c-19.9-1.5-42.5-6.1-67.1-13.5c-29.5-8.9-58.1-7.5-85.1,4.1c-3.8,1.6-5.6,6-3.9,9.9
		c1.6,3.8,6,5.6,9.9,3.9c23.7-10.2,48.8-11.3,74.9-3.5c25.6,7.7,49.2,12.4,70.2,14.1c0.2,0,0.4,0,0.6,0c3.9,0,7.2-3,7.5-6.9
		C447.3,157.4,444.3,153.8,440.1,153.5L440.1,153.5z"/>
	<path class="st0" d="M440.1,312.9c-19.9-1.5-42.5-6.1-67.1-13.5c-29.5-8.9-58.1-7.5-85.1,4.1c-3.8,1.6-5.6,6-3.9,9.9
		c1.6,3.8,6,5.6,9.9,3.9c23.7-10.2,48.8-11.3,74.9-3.5c25.6,7.7,49.2,12.4,70.2,14.1c0.2,0,0.4,0,0.6,0c3.9,0,7.2-3,7.5-6.9
		C447.3,316.8,444.3,313.2,440.1,312.9L440.1,312.9z"/>
	<path class="st0" d="M440.1,344.7c-19.9-1.5-42.5-6.1-67.1-13.5c-29.5-8.9-58.1-7.5-85.1,4.1c-3.8,1.6-5.6,6-3.9,9.9
		c1.6,3.8,6,5.6,9.9,3.9c23.7-10.2,48.8-11.3,74.9-3.5c25.6,7.7,49.2,12.4,70.2,14.1c0.2,0,0.4,0,0.6,0c3.9,0,7.2-3,7.5-6.9
		C447.3,348.7,444.3,345.1,440.1,344.7L440.1,344.7z"/>
	<path class="st0" d="M440.1,185.4c-19.9-1.5-42.5-6.1-67.1-13.5c-29.5-8.9-58.1-7.5-85.1,4.1c-3.8,1.6-5.6,6-3.9,9.9
		c1.6,3.8,6,5.6,9.9,3.9c23.7-10.2,48.8-11.3,74.9-3.5c25.6,7.7,49.2,12.4,70.2,14.1c0.2,0,0.4,0,0.6,0c3.9,0,7.2-3,7.5-6.9
		C447.3,189.3,444.3,185.7,440.1,185.4L440.1,185.4z"/>
	<path class="st0" d="M440.1,249.1c-19.9-1.5-42.5-6.1-67.1-13.5c-29.5-8.9-58.1-7.5-85.1,4.1c-3.8,1.6-5.6,6-3.9,9.9
		c1.6,3.8,6,5.6,9.9,3.9c23.7-10.2,48.8-11.3,74.9-3.5c25.6,7.7,49.2,12.4,70.2,14.1c0.2,0,0.4,0,0.6,0c3.9,0,7.2-3,7.5-6.9
		C447.3,253,444.3,249.4,440.1,249.1L440.1,249.1z"/>
	<path class="st0" d="M440.1,217.2c-19.9-1.5-42.5-6.1-67.1-13.5c-29.5-8.9-58.1-7.5-85.1,4.1c-3.8,1.6-5.6,6-3.9,9.9
		c1.6,3.8,6,5.6,9.9,3.9c23.7-10.2,48.8-11.3,74.9-3.5c25.6,7.7,49.2,12.4,70.2,14.1c0.2,0,0.4,0,0.6,0c3.9,0,7.2-3,7.5-6.9
		C447.3,221.2,444.3,217.6,440.1,217.2L440.1,217.2z"/>
	<path class="st0" d="M440.1,281c-19.9-1.5-42.5-6.1-67.1-13.5c-29.5-8.9-58.1-7.5-85.1,4.1c-3.8,1.6-5.6,6-3.9,9.9
		c1.6,3.8,6,5.6,9.9,3.9c23.7-10.2,48.8-11.3,74.9-3.5c25.6,7.7,49.2,12.4,70.2,14.1c0.2,0,0.4,0,0.6,0c3.9,0,7.2-3,7.5-6.9
		C447.3,284.9,444.3,281.3,440.1,281L440.1,281z"/>
	<path class="st0" d="M72.4,136.6c0.2,0,0.4,0,0.6,0c21-1.6,44.7-6.3,70.2-14.1c26-7.8,51.2-6.7,74.9,3.5c3.8,1.6,8.2-0.1,9.9-3.9
		c1.6-3.8-0.1-8.2-3.9-9.9c-27-11.6-55.6-13-85.1-4.1c-24.6,7.4-47.1,11.9-67.1,13.5c-4.1,0.3-7.2,3.9-6.9,8.1
		C65.3,133.6,68.6,136.6,72.4,136.6L72.4,136.6z"/>
	<path class="st0" d="M72.4,168.5c0.2,0,0.4,0,0.6,0c21-1.6,44.6-6.3,70.2-14.1c26-7.8,51.2-6.7,74.9,3.5c3.8,1.6,8.2-0.1,9.9-3.9
		c1.6-3.8-0.1-8.2-3.9-9.9c-27-11.6-55.6-13-85.1-4.1c-24.6,7.4-47.1,11.9-67.1,13.5c-4.1,0.3-7.2,3.9-6.9,8.1
		C65.3,165.5,68.6,168.5,72.4,168.5z"/>
	<path class="st0" d="M72.4,327.9c0.2,0,0.4,0,0.6,0c21-1.6,44.7-6.3,70.2-14.1c26-7.8,51.2-6.7,74.9,3.5c3.8,1.6,8.2-0.1,9.9-3.9
		c1.6-3.8-0.1-8.2-3.9-9.9c-27-11.6-55.6-13-85.1-4.1c-24.6,7.4-47.1,11.9-67.1,13.5c-4.1,0.3-7.2,3.9-6.9,8.1
		C65.3,324.9,68.6,327.9,72.4,327.9z"/>
	<path class="st0" d="M72.4,359.7c0.2,0,0.4,0,0.6,0c21-1.6,44.7-6.3,70.2-14.1c26-7.8,51.2-6.7,74.9,3.5c3.8,1.6,8.2-0.1,9.9-3.9
		c1.6-3.8-0.1-8.2-3.9-9.9c-27-11.6-55.6-13-85.1-4.1c-24.6,7.4-47.1,11.9-67.1,13.5c-4.1,0.3-7.2,3.9-6.9,8.1
		C65.3,356.7,68.6,359.7,72.4,359.7z"/>
	<path class="st0" d="M72.4,200.3c0.2,0,0.4,0,0.6,0c21-1.6,44.7-6.3,70.2-14.1c26-7.8,51.2-6.7,74.9,3.5c3.8,1.6,8.2-0.1,9.9-3.9
		c1.6-3.8-0.1-8.2-3.9-9.9c-27-11.6-55.6-13-85.1-4.1c-24.6,7.4-47.1,11.9-67.1,13.5c-4.1,0.3-7.2,3.9-6.9,8.1
		C65.3,197.4,68.6,200.3,72.4,200.3L72.4,200.3z"/>
	<path class="st0" d="M72.4,264.1c0.2,0,0.4,0,0.6,0c21-1.6,44.6-6.3,70.2-14.1c26-7.8,51.2-6.7,74.9,3.5c3.8,1.6,8.2-0.1,9.9-3.9
		c1.6-3.8-0.1-8.2-3.9-9.9c-27-11.6-55.6-13-85.1-4.1c-24.6,7.4-47.1,11.9-67.1,13.5c-4.1,0.3-7.2,3.9-6.9,8.1
		C65.3,261.1,68.6,264.1,72.4,264.1z"/>
	<path class="st0" d="M72.4,232.2c0.2,0,0.4,0,0.6,0c21-1.6,44.7-6.3,70.2-14.1c26-7.8,51.2-6.7,74.9,3.5c3.8,1.6,8.2-0.1,9.9-3.9
		c1.6-3.8-0.1-8.2-3.9-9.9c-27-11.6-55.6-13-85.1-4.1c-24.6,7.4-47.1,11.9-67.1,13.5c-4.1,0.3-7.2,3.9-6.9,8.1
		C65.3,229.2,68.6,232.2,72.4,232.2z"/>
	<path class="st0" d="M72.4,296c0.2,0,0.4,0,0.6,0c21-1.6,44.6-6.3,70.2-14.1c26-7.8,51.2-6.7,74.9,3.5c3.8,1.6,8.2-0.1,9.9-3.9
		c1.6-3.8-0.1-8.2-3.9-9.9c-27-11.6-55.6-13-85.1-4.1c-24.6,7.4-47.1,11.9-67.1,13.5c-4.1,0.3-7.2,3.9-6.9,8.1
		C65.3,293,68.6,296,72.4,296z"/>
	<path class="st0" d="M493.7,93.3H482v-6.8c0-9.6-8.2-17.2-17.8-16.4c-11.1,0.9-35.3,0.9-73.3-8.7c-4-1-8.1,1.4-9.1,5.4
		s1.4,8.1,5.4,9.1c38.1,9.6,63.5,10.3,78.1,9.1c0.9-0.1,1.6,0.6,1.6,1.5v302.7c-28.4,3.1-66.4-5.1-93.9-13.4
		c-61.5-18.5-101.2,13.3-109.6,17.8V93.8c8.1-7.6,40.8-34.5,89.4-26.7c4.1,0.7,7.9-2.1,8.6-6.2s-2.1-7.9-6.2-8.6
		C304.2,44.1,269,69,256,80.4c-29.8-25.9-72.5-37.4-117-24C91.2,70.8,61.3,71.1,47.8,70.1C38.2,69.3,30,76.9,30,86.5v6.8H18.3
		C8.2,93.3,0,101.5,0,111.6v304.1C0,425.8,8.2,434,18.3,434h194.3c2.9,0,5.6,1.6,6.7,4.1c14.6,30.8,58.6,30.9,73.3,0
		c1.2-2.5,3.8-4.1,6.7-4.1h194.3c10.1,0,18.3-8.2,18.3-18.3V273.5c0-4.1-3.4-7.5-7.5-7.5s-7.5,3.4-7.5,7.5v142.2
		c0,1.8-1.5,3.3-3.3,3.3H299.4c-8.7,0-16.6,5-20.3,12.7c-9.2,19.4-36.9,19.5-46.1,0c-3.6-7.7-11.6-12.7-20.3-12.7H18.3
		c-1.8,0-3.3-1.5-3.3-3.3V111.6c0-1.8,1.5-3.3,3.3-3.3H30v287.2c0,3.4,2.3,6.4,5.6,7.3c1.4,0.4,35.8,9,107.6-12.6
		c34.8-10.5,68.3-4.1,94.9,14.7c10.3,7.3,24.6,7.7,35.6,0c16.1-11.3,49.8-28.3,94.9-14.7c71.9,21.7,106.2,13,107.6,12.6
		c3.3-0.9,5.6-3.8,5.6-7.3V108.3h11.7c1.8,0,3.3,1.5,3.3,3.3v126.9c0,4.1,3.4,7.5,7.5,7.5s7.5-3.4,7.5-7.5V111.6
		C512,101.5,503.8,93.3,493.7,93.3z M45.1,86.5c0-0.8,0.7-1.5,1.6-1.5c14.6,1.2,46.5,0.9,96.6-14.2c40.6-12.2,79.4-1.1,105.2,23
		v299.8c-4.3-2.3-46.5-36.8-109.6-17.8c-4,1.2-8.5,2.5-12.6,3.6c-0.1,0-0.1,0-0.1,0c-24.2,6.4-56.3,12.4-81.1,9.7
		C45.1,368.3,45.1,92.1,45.1,86.5L45.1,86.5z"/>
</g>
</svg>
