<?xml version="1.0" encoding="utf-8"?>
<!-- Generator: Adobe Illustrator 24.1.2, SVG Export Plug-In . SVG Version: 6.00 Build 0)  -->
<svg version="1.1" id="Camada_1" xmlns="http://www.w3.org/2000/svg" xmlns:xlink="http://www.w3.org/1999/xlink" x="0px" y="0px"
	 viewBox="0 0 763.9 520" style="enable-background:new 0 0 763.9 520;" xml:space="preserve">
<style type="text/css">
	.st0{fill:#FFFFFF;}
</style>
<path class="st0" d="M364.15,129.25H247.21V520H117.28V129.25H0C15.1,86.17,30.19,43.09,45.28,0l318.87,0.29V129.25z"/>
<path class="st0" d="M612.12,520L481.55,294.32V520H351.89L351.28,0.29h185.41c105.42,0,180.86,75.76,180.86,168.94
	c0,64.8-36.66,119-84.52,142.18L763.9,520H612.12z M480.95,228.55l53,0.32c27.57,0.32,52.71-20.31,52.71-52.23
	c0-32.24-25.44-52.23-52.71-52.23h-53L480.95,228.55z"/>
</svg>
